<svg width="206" height="206" viewBox="0 0 206 206" fill="none" xmlns="http://www.w3.org/2000/svg">
<rect width="206" height="206" fill="#E9E9E9"/>
<path opacity="0.1" d="M103 110.402C106.535 110.402 109.4 107.536 109.4 104.002C109.4 100.467 106.535 97.6016 103 97.6016C99.4654 97.6016 96.6 100.467 96.6 104.002C96.6 107.536 99.4654 110.402 103 110.402Z" fill="black"/>
<g opacity="0.1">
<path d="M97 84L93.34 88H87C84.8 88 83 89.8 83 92V116C83 118.2 84.8 120 87 120H119C121.2 120 123 118.2 123 116V92C123 89.8 121.2 88 119 88H112.66L109 84H97ZM103 114C97.48 114 93 109.52 93 104C93 98.48 97.48 94 103 94C108.52 94 113 98.48 113 104C113 109.52 108.52 114 103 114Z" fill="black"/>
</g>
<rect x="83.6867" y="79.7906" width="60.5824" height="3.38983" transform="rotate(48.9184 83.6867 79.7906)" fill="#D2D2D2" stroke="#E9E9E9"/>
</svg>
